<svg width="71" height="13" viewBox="0 0 71 13" fill="none" xmlns="http://www.w3.org/2000/svg">
<path fill-rule="evenodd" clip-rule="evenodd" d="M6.48925 13C10.0732 13 12.9785 10.0899 12.9785 6.5C12.9785 2.91015 10.0732 0 6.48925 0C2.90533 0 0 2.91015 0 6.5C0 10.0899 2.90533 13 6.48925 13Z" fill="#009915"/>
<path fill-rule="evenodd" clip-rule="evenodd" d="M26.3369 13C29.9208 13 32.8262 10.0899 32.8262 6.5C32.8262 2.91015 29.9208 0 26.3369 0C22.753 0 19.8477 2.91015 19.8477 6.5C19.8477 10.0899 22.753 13 26.3369 13Z" fill="white"/>
<path fill-rule="evenodd" clip-rule="evenodd" d="M46.1885 13C49.7724 13 52.6777 10.0899 52.6777 6.5C52.6777 2.91015 49.7724 0 46.1885 0C42.6046 0 39.6992 2.91015 39.6992 6.5C39.6992 10.0899 42.6046 13 46.1885 13Z" fill="white"/>
<path opacity="0.9" fill-rule="evenodd" clip-rule="evenodd" d="M64.5127 13C68.0966 13 71.0019 10.0899 71.0019 6.5C71.0019 2.91015 68.0966 0 64.5127 0C60.9288 0 58.0234 2.91015 58.0234 6.5C58.0234 10.0899 60.9288 13 64.5127 13Z" fill="white"/>
</svg>
