<svg width="19" height="16" viewBox="0 0 19 16" fill="none" xmlns="http://www.w3.org/2000/svg">
<path fill-rule="evenodd" clip-rule="evenodd" d="M9.24915 2.09261C10.2041 0.997614 11.6672 0.304688 13.1915 0.304688C15.8899 0.304688 18.01 2.37491 18.01 5.00974C18.01 8.24074 15.0362 10.8739 10.5306 14.8634L10.5195 14.8732L9.24915 16.0025L7.97882 14.8818L7.94424 14.8511C3.45176 10.8647 0.488281 8.23512 0.488281 5.00974C0.488281 2.37491 2.60841 0.304688 5.30676 0.304688C6.83115 0.304688 8.29422 0.997614 9.24915 2.09261ZM9.24915 13.6927L9.33676 13.6072C13.5069 9.9201 16.2578 7.48203 16.2578 5.00974C16.2578 3.29881 14.9437 2.01562 13.1915 2.01562C11.8424 2.01562 10.5282 2.86253 10.0727 4.03451H8.43439C7.97006 2.86253 6.65593 2.01562 5.30676 2.01562C3.55459 2.01562 2.24046 3.29881 2.24046 5.00974C2.24046 7.48203 4.99137 9.9201 9.16154 13.6072L9.24915 13.6927Z" fill="#26D93E"/>
</svg>
