<svg width="22" height="19" viewBox="0 0 22 19" fill="none" xmlns="http://www.w3.org/2000/svg">
<path fill-rule="evenodd" clip-rule="evenodd" d="M3.28 3.55L1 1.27L2.27 0L20 17.73L18.73 19L15.8 16.08L15.38 15.66C14.03 16.2 12.55 16.5 11 16.5C6 16.5 1.73 13.39 0 9C0.78 7.02 2.08 5.3 3.74 4.01L3.28 3.55ZM16 9C16 6.24 13.76 4 11 4C10.35 4 9.74 4.13 9.17 4.36L7.01 2.2C8.25 1.75 9.59 1.5 10.99 1.5C15.99 1.5 20.26 4.61 21.99 9C21.26 10.86 20.07 12.49 18.56 13.75L15.64 10.83C15.87 10.26 16 9.65 16 9ZM6.53 6.8L8.08 8.35C8.03 8.56 8 8.78 8 9C8 10.66 9.34 12 11 12C11.22 12 11.44 11.97 11.65 11.92L13.2 13.47C12.53 13.8 11.79 14 11 14C8.24 14 6 11.76 6 9C6 8.21 6.2 7.47 6.53 6.8ZM13.99 9.17L10.84 6.02L11.01 6.01C12.67 6.01 14.01 7.35 14.01 9.01L13.99 9.17Z" fill="#A0A0A0"/>
</svg>
